# xmcd
#
# Track frame offsets: 
#        150
#        2616
#        2983
#        10403
#        18819
#        20672
#        24557
#        26992
#        27862
#        28162
#        37018
#        46618
#        53800
#        57360
#        58111
#        67576
#        73426
#        75788
#        78219
#        100748
#        104154
#        109507
#        111607
#        113240
#        119416
#        127771
#        134519
#        145611
#        148969
#        156382
#        160520
#        163083
#        172430
#        179090
#        180666
#        184004
#        187984
#        230284
#        230584
#        234400
#        235900
#        237762
#        239619
#
# Disc length: 3222 seconds
#
# Revision: 0
# Processed by: cddbd v1.5.1PL0 Copyright (c) Steve Scherf et al.
# Submitted via: ExactAudioCopy v0.95a5
#
DISCID=4e0c942b
DTITLE=Heiner Müller - Heiner Müller liest Heiner Müller
DYEAR=1989
DGENRE=Lesung
TTITLE0=Begrüßung
TTITLE1=Lektionen
TTITLE2=Zwei Briefe 1
TTITLE3=Zwei Briefe 2
TTITLE4=Brecht
TTITLE5=Film
TTITLE6=Majakowski
TTITLE7=Oder Büchner
TTITLE8=Lektionen II
TTITLE9=Horaz aus: Satiren 2,1
TTITLE10=Geschichten von Homer
TTITLE11=Horaz
TTITLE12=Ulyss
TTITLE13=Lektion
TTITLE14=Selbstbildnis um zwei Uhr nachts am 20. August 1959
TTITLE15=Projektionen 1975
TTITLE16=ABC
TTITLE17=Und zwischen ABC und Einmaleins
TTITLE18=Das Eiserne Kreuz
TTITLE19=Die Bauern standen mit dem Rücken zum Steinbruch
TTITLE20=Hundert Schritt (nach Defoe)
TTITLE21=Schotterbeck
TTITLE22=Der Vater
TTITLE23=eins
TTITLE24=zwei
TTITLE25=drei
TTITLE26=vier
TTITLE27=fünf
TTITLE28=sechs
TTITLE29=sieben
TTITLE30=acht
TTITLE31=neun
TTITLE32=zehn
TTITLE33=Allein mit diesen Leibern
TTITLE34=E.L.
TTITLE35=Gestern an einem sonnigen Nachmittag
TTITLE36=Todesanzeige
TTITLE37=Ausreisen
TTITLE38=Motiv bei A.S.
TTITLE39=Nachtzug BerlinFriedrichstraßeFrankfurtMain
TTITLE40=Manchmal wenn ich meine Privilegien geniesse
TTITLE41=Beim Wiedersehen von Alexander Fadejews Die Neunzehn
TTITLE42=Ende
EXTD=
EXTT0=
EXTT1=
EXTT2=
EXTT3=
EXTT4=
EXTT5=
EXTT6=
EXTT7=
EXTT8=
EXTT9=
EXTT10=
EXTT11=
EXTT12=
EXTT13=
EXTT14=
EXTT15=
EXTT16=
EXTT17=
EXTT18=
EXTT19=
EXTT20=
EXTT21=
EXTT22=
EXTT23=
EXTT24=
EXTT25=
EXTT26=
EXTT27=
EXTT28=
EXTT29=
EXTT30=
EXTT31=
EXTT32=
EXTT33=
EXTT34=
EXTT35=
EXTT36=
EXTT37=
EXTT38=
EXTT39=
EXTT40=
EXTT41=
EXTT42=
PLAYORDER=
